<?xml version="1.0" encoding="utf-8"?>
<!-- Generator: Adobe Illustrator 16.0.0, SVG Export Plug-In . SVG Version: 6.00 Build 0)  -->
<!DOCTYPE svg PUBLIC "-//W3C//DTD SVG 1.1//EN" "http://www.w3.org/Graphics/SVG/1.1/DTD/svg11.dtd">
<svg version="1.1" id="Layer_1" xmlns="http://www.w3.org/2000/svg" xmlns:xlink="http://www.w3.org/1999/xlink" x="0px" y="0px"
	 width="649.467px" height="173.991px" viewBox="0 0 649.467 173.991" enable-background="new 0 0 649.467 173.991"
	 xml:space="preserve">
<linearGradient id="SVGID_1_" gradientUnits="userSpaceOnUse" x1="8.7471" y1="86.875" x2="642.0259" y2="86.875">
	<stop  offset="0" style="stop-color:#EFCF00"/>
	<stop  offset="0.5001" style="stop-color:#FF00F1"/>
	<stop  offset="0.5426" style="stop-color:#F608F2"/>
	<stop  offset="0.6132" style="stop-color:#DC1DF3"/>
	<stop  offset="0.7034" style="stop-color:#B23EF5"/>
	<stop  offset="0.8095" style="stop-color:#796DF8"/>
	<stop  offset="0.9276" style="stop-color:#30A9FC"/>
	<stop  offset="1" style="stop-color:#00D0FF"/>
</linearGradient>
<path fill="url(#SVGID_1_)" d="M43.755,154.065v-2.884l-3.296-13.39c-1.648-6.18-2.884-10.918-3.502-14.214
	c-3.09-14.625-7.416-32.135-12.978-52.528l1.03,17.922c1.648,29.045,2.266,52.116,1.648,68.802c0,3.296-2.884,5.768-6.18,5.768
	s-5.768-2.884-5.768-6.18c0.618-16.273,0-38.933-1.648-67.566c-1.854-33.577-2.884-55.824-2.884-67.154l-1.236-4.532
	c-0.824-3.296,1.03-6.592,4.326-7.416c3.09-0.824,6.386,1.03,7.209,4.12l1.03,3.502c0.412,0.824,0.618,1.648,0.618,2.678
	c1.03,4.12,3.914,14.213,8.652,30.075c9.063,32.135,13.596,49.645,17.715,70.038l2.472,10.506c0.206-1.854,0.412-3.502,0.618-4.532
	c3.914-29.869,7.622-54.176,10.712-70.656l7.622-37.491c0.206-1.442,0.824-2.472,1.854-3.296c1.03-2.472,2.884-3.708,5.562-3.708
	c3.296,0,5.974,2.678,5.974,5.974c0,45.524,1.648,91.873,4.738,139.045c0.206,3.296-2.266,6.18-5.562,6.386s-6.18-2.266-6.386-5.562
	c-1.854-29.251-3.296-58.502-4.12-87.547c-3.296,18.746-6.18,38.109-8.446,58.09c-1.03,9.682-3.09,20.805-4.532,25.749
	c-0.824,3.09-2.06,4.738-3.09,6.18c-3.09,2.678-8.652,2.678-11.124-2.06C44.167,157.155,43.961,155.713,43.755,154.065z
	 M115.853,94.533h-0.824l1.03,22.453v4.326c-0.206,2.266-0.206,4.944-0.412,8.446c-0.206,7.003-0.412,15.038-0.412,20.599
	c0.206,0.824,0.206,1.442,0.206,1.854h0.206c4.326,0.206,10.3,0.206,18.54-0.412l7.004-0.412c3.296,0,5.974,2.678,5.974,5.974
	s-2.678,5.974-5.974,5.974l-6.798,0.412c-7.622,0.618-14.42,0.618-19.569,0.412c-3.296-0.206-7.21-0.824-9.476-3.502
	c-1.442-1.648-1.648-3.502-1.648-5.15c-0.206-1.236-0.206-2.884-0.412-4.944c0-5.974,0.206-14.213,0.412-20.805
	c0.206-3.296,0.206-5.974,0.412-8.034v-4.326c0-1.03-0.206-7.622-0.824-19.569c-1.03-23.689-1.854-45.318-1.648-60.15
	c0-9.064,0.206-15.45,1.648-18.54c3.296-6.798,11.742-8.446,19.981-8.24c6.18,0.206,12.154,1.236,17.716,2.884
	c3.296,1.03,4.944,4.326,4.12,7.416c-1.03,3.296-4.326,4.944-7.416,4.12c-4.738-1.442-9.682-2.266-14.832-2.472
	c-2.884,0-5.15,0.206-7.004,0.618c-1.03,0.206-1.442,0.618-1.648,0.824v0.412c-0.206,0.618-0.412,1.442-0.412,2.884
	c-0.206,2.472-0.206,5.768-0.206,10.094c-0.206,6.592,0,16.273,0.412,29.251l0.618,15.655h0.412
	c11.124-0.618,17.509-1.03,19.363-1.03c3.296,0,5.974,2.678,5.974,5.974s-2.678,5.974-5.974,5.974
	C132.95,93.503,126.77,93.915,115.853,94.533z M165.293,119.458v-13.39l-1.648-27.809l-1.03-14.008
	c-0.412-7.209-0.618-11.33-0.824-12.359c0-0.618,0-1.854-0.206-4.12c-0.206-2.266-0.618-4.738-0.824-7.416
	c-0.618-5.356-0.824-13.184,0-19.157c0.618-4.12,2.06-8.446,6.18-10.3c10.711-4.326,21.011,3.708,29.457,14.625
	c14.008,17.921,19.157,34.607,21.835,51.292c3.09,17.097,2.06,36.049-3.502,51.705c-5.562,15.861-18.54,30.075-36.873,37.697
	c-2.678,1.03-4.738,0.412-6.592-1.442c-1.648,0.618-4.738,0.412-6.592-2.266c-1.03-1.236-1.442-2.678-1.236-4.326
	c1.03-7.416,1.648-17.304,1.854-24.72C165.499,129.964,165.499,125.227,165.293,119.458z M174.562,64.046l1.03,15.449
	c0.206,4.326,1.442,23.277,1.442,30.487c0,3.708,0,8.446,0.206,14.419c0.206,11.948-0.412,20.805-1.236,29.663
	c17.304-8.24,28.015-23.689,30.899-41.611c2.884-17.921,0.412-37.491-6.386-56.442c-2.678-7.416-7.21-15.038-13.596-23.071
	c-3.502-4.532-6.592-7.828-9.476-9.682c-1.854-1.03-3.296-1.648-4.532-1.648c-0.206,0.412-0.206,0.824-0.412,1.442
	c-0.618,4.738-0.206,11.741,0.206,16.891l0.618,7.004l0.412,4.12C173.739,51.48,173.945,55.807,174.562,64.046z M238.421,23.054
	v-0.412h-12.36c-3.296,0-5.974-2.678-5.974-5.974s2.678-5.974,5.974-5.974c22.042,0,35.225,0,39.345-0.206
	c3.296,0,6.18,2.472,6.18,5.768s-2.472,6.18-5.768,6.18c-4.532,0.206-9.682,0.206-15.45,0.206v47.791
	c-0.412,31.517-0.412,47.172,0,47.172c0.206,3.914,0.618,10.506,1.442,19.775c0.618,5.562,0.824,10.094,1.03,13.596
	c7.209-0.824,13.184-1.236,17.921-1.236c3.296,0,5.974,2.678,5.974,5.974s-2.678,5.974-5.974,5.974
	c-4.738,0-11.742,0.618-21.011,1.648c-0.824,0.412-1.648,0.618-2.678,0.618c-0.412,0-0.824,0-1.442-0.206
	c-8.857,1.03-16.067,1.442-21.629,1.236c-3.296,0-5.768-2.884-5.768-6.18s2.884-5.768,6.18-5.768
	c4.532,0.206,10.094-0.206,16.479-0.824c-0.206-2.678-0.412-7.209-1.03-13.801c-1.648-18.952-1.854-29.045-1.854-50.263
	c0-10.506,0-22.247,0.206-35.225C238.421,39.945,238.421,30.057,238.421,23.054z M284.359,130.788l-0.824-25.543
	c-0.824-22.865-1.442-39.757-1.442-56.03c0-0.412,0-2.884-0.206-7.622c-0.206-9.27-0.412-16.273,1.03-22.247
	c2.266-9.682,5.768-11.33,14.625-12.154c19.569-1.854,28.221,12.978,30.899,31.929c2.678,18.333,4.532,46.143,5.562,83.221
	c0.206,4.738,0.206,8.858,0,12.36c-0.206,6.798,0.206,15.655,1.236,22.247c0.618,3.296-1.648,6.386-4.944,7.004
	s-6.386-1.648-7.003-4.944c-1.03-7.416-1.442-17.509-1.236-24.719c0.206-2.884,0.206-6.798,0-11.536
	c-0.206-11.536-0.618-20.599-0.824-26.985c-2.678-0.206-6.18-0.412-10.917-0.618c-7.004-0.412-11.536-0.618-13.596-0.618
	c-0.618,0-1.03,0-1.648-0.206c0.618,21.629,1.03,33.783,1.236,36.049c0.618,7.622,0.824,20.188-1.442,29.045
	c-0.824,3.296-3.914,5.15-7.21,4.326c-3.296-0.824-5.15-3.914-4.326-7.21C284.978,149.328,284.978,139.646,284.359,130.788z
	 M294.659,82.998c0.618-0.206,1.442-0.412,2.06-0.412c5.974,0,19.981,1.03,23.895,1.236c-0.824-15.862-2.266-30.075-4.12-43.053
	c-2.266-14.832-7.21-22.66-17.716-21.629c-1.854,0.206-2.884,0.206-3.296,0.206c-0.412,0.618-0.824,1.442-1.03,2.678
	c-0.824,4.326-0.824,9.476-0.618,19.157c0.206,4.738,0.206,7.416,0.206,8.034C294.041,58.896,294.247,70.02,294.659,82.998z
	 M409.869,154.065v-2.884l-3.296-13.39c-1.648-6.18-2.884-10.918-3.502-14.214c-3.09-14.625-7.416-32.135-12.978-52.528l1.03,17.922
	c1.648,29.045,2.266,52.116,1.648,68.802c0,3.296-2.884,5.768-6.18,5.768s-5.768-2.884-5.768-6.18
	c0.618-16.273,0-38.933-1.648-67.566c-1.854-33.577-2.884-55.824-2.884-67.154l-1.236-4.532c-0.824-3.296,1.03-6.592,4.326-7.416
	c3.09-0.824,6.386,1.03,7.21,4.12l1.03,3.502c0.412,0.824,0.618,1.648,0.618,2.678c1.03,4.12,3.914,14.213,8.652,30.075
	c9.063,32.135,13.596,49.645,17.715,70.038l2.472,10.506c0.206-1.854,0.412-3.502,0.618-4.532
	c3.914-29.869,7.622-54.176,10.712-70.656l7.622-37.491c0.206-1.442,0.824-2.472,1.854-3.296c1.03-2.472,2.884-3.708,5.562-3.708
	c3.296,0,5.974,2.678,5.974,5.974c0,45.524,1.648,91.873,4.738,139.045c0.206,3.296-2.266,6.18-5.562,6.386s-6.18-2.266-6.386-5.562
	c-1.854-29.251-3.296-58.502-4.12-87.547c-3.296,18.746-6.18,38.109-8.446,58.09c-1.03,9.682-3.09,20.805-4.532,25.749
	c-0.824,3.09-2.06,4.738-3.09,6.18c-3.09,2.678-8.652,2.678-11.124-2.06C410.281,157.155,410.075,155.713,409.869,154.065z
	 M461.779,130.788l-0.824-25.543c-0.824-22.865-1.442-39.757-1.442-56.03c0-0.412,0-2.884-0.206-7.622
	c-0.206-9.27-0.412-16.273,1.03-22.247c2.266-9.682,5.768-11.33,14.625-12.154c19.569-1.854,28.222,12.978,30.899,31.929
	c2.678,18.333,4.531,46.143,5.562,83.221c0.206,4.738,0.206,8.858,0,12.36c-0.206,6.798,0.206,15.655,1.236,22.247
	c0.618,3.296-1.648,6.386-4.944,7.004s-6.386-1.648-7.004-4.944c-1.029-7.416-1.441-17.509-1.235-24.719
	c0.206-2.884,0.206-6.798,0-11.536c-0.206-11.536-0.618-20.599-0.824-26.985c-2.678-0.206-6.18-0.412-10.918-0.618
	c-7.003-0.412-11.535-0.618-13.595-0.618c-0.618,0-1.03,0-1.648-0.206c0.618,21.629,1.03,33.783,1.236,36.049
	c0.618,7.622,0.824,20.188-1.442,29.045c-0.824,3.296-3.914,5.15-7.21,4.326c-3.296-0.824-5.15-3.914-4.326-7.21
	C462.397,149.328,462.397,139.646,461.779,130.788z M472.079,82.998c0.618-0.206,1.442-0.412,2.06-0.412
	c5.974,0,19.981,1.03,23.895,1.236c-0.824-15.862-2.266-30.075-4.12-43.053c-2.266-14.832-7.209-22.66-17.715-21.629
	c-1.854,0.206-2.884,0.206-3.296,0.206c-0.412,0.618-0.824,1.442-1.03,2.678c-0.824,4.326-0.824,9.476-0.618,19.157
	c0.206,4.738,0.206,7.416,0.206,8.034C471.46,58.896,471.667,70.02,472.079,82.998z M546.238,74.14l2.266,1.236l3.296,1.236
	l3.502,1.236c8.857,3.296,14.214,8.652,15.861,21.012c0.206,1.854,0.206,4.12,0.206,7.209c-0.206,3.09-0.206,4.944-0.206,5.974
	c0,0.824,0.206,3.296,0.618,7.622c0.824,8.652,1.03,12.359,0.412,21.629c-1.442,13.39-7.622,23.689-22.247,23.071
	c-7.416-0.206-11.948-2.266-15.862-8.858c-3.09-5.356-4.737-12.978-4.943-23.071v-11.33c0.206-3.914,0-7.004-0.206-9.27
	c-0.206-3.296,2.06-6.386,5.355-6.592s6.386,2.06,6.592,5.355c0.206,2.678,0.412,6.18,0.206,10.712v10.917
	c0.206,8.034,1.236,13.596,3.296,17.098c1.648,2.678,2.061,3.09,5.975,3.09c6.386,0.206,9.063-3.502,10.093-12.36
	c0.206-8.239,0.206-10.711-0.617-18.951l-0.618-8.652c0-1.236,0-3.502,0.206-6.798c0-4.738,0-10.299-3.09-13.595
	c-1.03-1.03-2.679-2.06-5.15-3.09c-0.206,0-5.355-1.648-7.21-2.472c-1.854-0.824-5.974-2.884-8.445-5.562
	c-1.442-1.236-2.678-2.678-3.708-4.532c-2.884-4.738-4.326-11.33-4.12-19.775c0-2.472,0.206-5.562,0.412-9.476
	c0.412-4.326,0.618-6.798,0.618-7.828c0.618-12.566,3.296-21.218,8.034-26.367c5.562-5.768,13.596-5.768,19.157-1.854
	c10.917,6.798,18.333,25.131,16.479,43.258c-0.618,3.296-3.296,5.562-6.592,5.15c-3.296-0.412-5.562-3.09-5.356-6.386
	c1.648-14.213-4.325-27.809-10.917-31.929c-1.854-1.03-3.09-1.03-4.12,0c-2.678,2.884-4.326,9.063-4.738,18.539
	c0,1.236-0.206,4.12-0.617,8.446c-0.618,7.21-1.442,16.479,2.06,22.042C543.148,71.874,543.971,73.316,546.238,74.14z
	 M591.145,153.241v-70.45c-0.412-9.682-1.029-23.071-1.647-34.401c-0.206-1.442-0.206-3.914-0.412-7.416
	c-0.206-7.21-0.412-8.858-1.03-14.008c-0.412-2.678-0.824-4.944-1.441-7.209c-0.824-3.09,1.029-6.386,4.325-7.21
	c3.09-0.824,6.386,1.03,7.21,4.326c1.442,4.944,2.266,11.948,2.472,15.45s0.824,13.39,0.824,15.244
	c0.618,9.682,1.03,20.187,1.236,31.311c9.27-0.412,17.715-1.03,25.337-2.06c-1.03-17.715-2.266-38.109-3.914-61.386
	c-0.206-3.296,2.267-6.18,5.562-6.386s6.18,2.266,6.386,5.562c3.913,54.588,5.974,100.525,5.974,137.81
	c0,3.296-2.678,5.974-5.974,5.974s-5.974-2.678-5.974-5.974c0-19.981-0.412-41.199-1.442-63.652
	c-7.828,1.03-16.479,1.648-25.749,2.06c0.206,7.828,0.206,28.633,0.206,62.416c0,3.296-2.679,5.974-5.974,5.974
	C593.823,159.215,591.145,156.537,591.145,153.241z"/>
</svg>
